<?xml version="1.0" encoding="UTF-8"?>
<svg id="Capa_1" data-name="Capa 1" xmlns="http://www.w3.org/2000/svg" viewBox="0 0 769.46 360.01">
  <defs>
    <style>
      .cls-1, .cls-2 {
        fill: #fff;
      }

      .cls-3 {
        stroke-width: 7px;
      }

      .cls-3, .cls-4, .cls-5, .cls-2, .cls-6 {
        stroke: #fff;
        stroke-miterlimit: 10;
      }

      .cls-3, .cls-4, .cls-5, .cls-6 {
        fill: none;
      }

      .cls-4 {
        stroke-width: 5px;
      }

      .cls-5 {
        stroke-width: 3px;
      }

      .cls-6 {
        stroke-width: 4px;
      }
    </style>
  </defs>
  <g>
    <g>
      <path class="cls-6" d="m203.05,281.78s5,6.35,6.62,7.33,1.91,7.8,1.91,7.8c0,0,.96,3.9,2.58,4.88s5.94,15.77,2.2,17.37,3.61,28.74,31.28,9.55c17.05-11.82,23.72-17.96,32.64-22.16,11.01-5.18,13.07-1.38,22.33-6.49,3.45-1.9,18.25-10.06,20.39-23.6,2.02-12.82-9.52-16.31-7.49-30.54,1.48-10.35,8.22-12.4,7.4-23.17-.31-4.06-3.02-15.1-3.02-15.1,0,0,7.47-.45,10.01,12.7s-5.74,13.12,11.15,11.73,14.96-6.43,14.96-6.43c0,0,35.73-6.01,44.36-12.95s16.27-9.5,16.27-9.5c0,0,23.9-48.58,5.58-89.55s-44.59-83.44-105.6-85c0,0-83.27,5.97-104.05,44.82-20.78,38.86-16.3,54.29-16.3,54.29,0,0-21.7,26.68-1.33,45.11,0,0,8.36-1.02.36,11.28s-14.22,23.47-4.02,28.54,15.18,16.94,12.41,19.69-10.28,14.24-10.28,14.24c0,0,4.39-1.77,3.85,10.08,0,0,.71,2.39,2.48,10.06.85,3.69,1.95,8.59,3.34,15.04h0l-.03-.02Z"/>
      <path class="cls-5" d="m198.23,158.27l20.05,17.13s9.98,18.22-1.24,23.04-9.54-7.99-9.54-7.99c0,0,15.39,6.56,3.6-7.77-10-12.16-11.75-12.95-12.52-19.95-.14-1.25-.24-2.7-.36-4.44v-.02Z"/>
      <path class="cls-6" d="m330.96,229.53c3.11-10.6-8.8-23.82-16.57-27.43-7.77-3.6-68.73,20.31-74.94,31.48-6.21,11.17-27.85-15.21-27.85-15.21"/>
      <path class="cls-6" d="m253.31,104.8s-52.52,24.6-19.4,58.5c33.12,33.9,37.97,36.84,94.01,23.77,0,0,14.76,1.2,13.27-30.13,0,0,2.3-7.45,15-17.46,12.7-10.01,1.41-25.15,1.41-25.15"/>
      <path class="cls-6" d="m261.9,218.43s-21.27,3.15-10.62,15.69c10.66,12.54,21.79,27.03,12.8,40.95"/>
      <path class="cls-6" d="m205.16,281.95s40.75-5.18,60.78-21.81"/>
      <path class="cls-6" d="m200.05,268.74s1.79-5.95,5.01-1.23c0,0,1.96-3.24,4.55-1.12,0,0,5.21-4.03,8.12-.61,0,0,6.03-6.3,8.94-2.88,0,0,4.73-5.98,9.75-2.39,0,0,3.92-6.47,10.4-2.55,0,0,2.78-5.51,4.72-3.23,1.94,2.28.18-4.87,6.34-2.24,6.16,2.63,5.24-2.32,5.24-2.32"/>
      <path class="cls-6" d="m211.61,291.39s0,2.76,2.92.66c0,0,6.82-.3,9.92-4.5,0,0,3.57.5,6.83-3.05,0,0,5.68.67,7.48-3.21,0,0,5.66,3.43,8.29-2.72,0,0,4.87.18,7.81-4.67,0,0,5.35,2.13,9.27-4.34s1.48-5.19,1.48-5.19"/>
      <path class="cls-6" d="m313.08,205.18c1.1-1.02,8.85,16.43-2.07,28.06-10.92,11.64,3.58,34.25,3.58,34.25,0,0,4.94,20.14-14.86,20.87,0,0-20.65,8.51-23.91,12.07s6.06-11.82,30.78-26.16c0,0-18.54-27.83-1.26-47.23s-2.38-12.51,7.72-21.87h.02Z"/>
      <path class="cls-4" d="m324.92,205.72s12.51-2.38,9.81,20.33c0,0,19.95,2.68,16.58-5.45s27.55,8.39,60.64-25.21c0,0,19.36-50.22,1.64-80.32-7.88-4.04-15.76-8.07-23.64-12.11,4.65,3.29,17.42,13.24,22.27,30.92,5.53,20.15-1.4,42.42-17.62,58.19,0,0-14.04,18.6-49.38,12.12-35.35-6.48-30.31-8.41-20.29,1.54h0Z"/>
      <path class="cls-6" d="m281.52,186.06s49.97,1.51,47.62-16.51c-2.36-18.02,18.01-36.11,22.39-37.87s-8.68-18.54.44-26.29,36.68-2.11,36.68-2.11c0,0-50.52-26.18-48.1,14.56l2.38,12.51s-26.2,16.76-22.53,31.71c3.67,14.94-38.89,24.01-38.89,24.01h.01Z"/>
      <path class="cls-5" d="m198.59,162.72s23.74,22.84,19.74,29.84-9.07-.36-9.07-.36l3.07,6.36s11.17,0,8.72-11.27c-.75-3.43-2.75-7.9-6.72-13.73l-15.36-13.07,19.36,23.07s-11.57-15-16.79-14.5,16.36,10.93,14.57,19.71-6.86,7.29-6.86,7.29"/>
      <polyline class="cls-5" points="210.33 171.56 220.33 188.56 214.33 194.56"/>
      <path class="cls-6" d="m280.83,295.06s20-13,24-15,6,6-11,9,20-5,18-10c0,0,2-6-1-13s-15-21-1-37l5-13-2,12s-8-2-9,5-8,10,3,35l1-6s7,16-4,17h7"/>
      <path class="cls-6" d="m294.83,184.06s31-4,31-12,0-22,9-28,8-12,14-14l1-1s-13-25,4-28,19-1,19-1l-3-3s-23-1-24,6-3,20-1,25l2,1s-20,18-22,24-2,15-2,15c0,0-1,11-21,13l22-8,1-2"/>
      <path class="cls-3" d="m326.33,203.56s18,3,11,14,11,6,11,6l-2-14h21l-25,10-1-13-2-1-15-2s63,10,66,1-25,10-25,10l-5,1,25-4,12-6s11-9,14-22,11-53,1-62-6-8-6-8"/>
      <path class="cls-3" d="m391.33,200.56s13-11,18-24-15,27-15,27"/>
    </g>
    <path class="cls-2" d="m356.03,56.91c-16.28-5.32-51.52-14.77-84.97-6.02-10.58,2.77-17.83,6.53-19.4,7.36-20.53,10.83-31.27,27.38-36.8,36.13-4,6.33-9.25,15.98-13.2,28.82-2.96,1.52-5.92,3.04-8.88,4.56.43-5.97,4.49-51.59,43.24-77.46,34.81-23.24,83.23-20.94,120.01,6.62h0Z"/>
  </g>
  <g>
    <path class="cls-1" d="m142.2,149.63c.57,2.15-1.41,5.54-6.88,5.54-3.66,0-15.19-5.54-13.78-19.99.84-9.29,13.92-46.43,22.64-83.21-10.13,18.93-42.75,80.53-46.41,98.92.57,2.15-1.41,5.53-6.89,5.53-3.52,0-12.93-2.85-11.53-17.32.99-10.35,16.6-63.2,25.03-106.77-18.42,38.21-62.72,121.77-88.45,121.77-12.66,0-16.32-7.68-15.9-10.89.29-3.4,3.1-.36,6.75-.36,32.48,0,88.59-117.31,102.09-139.27,0-.35,0-.89.14-1.43.14-1.61.98-2.32,2.25-1.97.09-.12.19-.18.28-.18.99,0,1.69.36,2.11,1.07,5.76,3.39,14.63,14.47,14.2,19.64-.7,6.43-16.73,63.38-18.14,78.56-.14.35-.42,1.25-.71,2.85,12.1-23.57,29.96-58.91,42.33-86.95.14-1.79.42-3.39.57-5,.84-8.75,18.84,11.07,18,18.39-.57,6.42-24.19,76.96-27.71,113.73-.27,2.32-.27,5.89,0,7.31v.03Z"/>
    <path class="cls-1" d="m207.83,113.06c-6.57,18.61-11.17,31.66-22.41,38.86-2.45,1.57-6.39,3.61-12.11,4.68h-.85c-2.81,0-17.44-1.97-16.59-14.65.85-12.67,20.39-63.03,20.96-70.17.56-8.58,15.75,3.21,15.33,10.35-.42,6.07-12.24,43.21-16.74,59.63-.59,2.55-.59,4.22.18,4.68,0,0,.22.13.52.13,3.84.02,8.63-8.72,8.63-8.72,7.04-12.84,25.21-60.27,25.42-60.22.24.06-4.3,15.22-1.34,16.73,2.05,1.04,7.23-4.68,12.99-12.32-2.57,4.24-6.2,10.7-9.65,19.01-2.09,5.03-2.75,7.45-4.35,11.99v.02Zm-28.19-66.62c.71-9.46,10.55-21.61,18-21.61,5.63,0,9.42,4.46,9,11.96-.56,7.68-6.75,21.26-14.76,21.26-6.04,0-12.65-5.36-12.24-11.61Z"/>
  </g>
  <path class="cls-1" d="m382.59,201.08c-2.55,3.5-5.14,6.88-7.69,10,1.3-2.82,2.56-5.74,3.76-8.69-.84.63-1.7,1.21-2.56,1.71-3.46,2.2-7.19,3.39-11.19,3.57-3.96.89-7.91.72-11.87-.5-5.22,8.4-10.61,14.26-15.4,14.64,1.33-5.75,2.76-11.5,4.12-17.13-2.03-.57-4.05-1.19-6.06-1.85-4.44-1.46-8.32-3.69-11.53-6.49-1.31,5.38-2.65,10.69-3.99,15.85.15,1.29.25,2.58.3,3.87.3,7.65-2.85,16.28-7.29,22.25-.91,3.35-1.78,6.54-2.58,9.54,4.19,5.28,6.37,12.24,7.07,19.25.48,2.48.77,5.02.86,7.52.21,5.27-1.22,11.01-3.59,16.02,3.31,1.12,6.37.69,7.22-.37,1.69-2.23.28-1.82.42-5.67.29-3.04,6.9-29.98,14.2-59.56,4.47,4.84,15.04,14.77,29.28,15.18,21.84.64,45.08-21.29,50.18-54.86-6.93,5.56-16.34,11.35-28.3,14.52-1.82.48-3.61.88-5.35,1.2h-.01Z"/>
  <path class="cls-1" d="m491.75,176.67c-9.14,16.96-28.41,50.88-34.46,50.88-1.26,0-1.41-1.79-.7-4.64,4.49-16.6,16.31-53.74,16.59-59.81.56-7.14-14.63-18.93-15.19-10.35-.14,1.61-1.27,5.71-3.1,11.07-4.22-6.78-11.67-15.71-21.65-15.71-1.43,0-3.03.93-4.73,2.54-.39,10.94-2.76,21.88-6.55,32.11-1.28,4.55-3.26,8.69-5.9,12.44-2.06,4.3-4.79,8.23-7.86,11.3-2.08,2.08-4.46,3.93-7.03,5.51-.21,1.16-.36,2.19-.42,3.05-.85,13.38,12.66,22.31,20.25,22.31,3.37,0,10.41-9.82,17.02-20.53-.57,2.5-.85,4.46-.99,6.07-.84,12.67,13.79,14.65,16.59,14.65h.85c12.94-1.97,34.59-43.39,40.08-54.46.85-1.61.28-12.14-2.81-6.42h.01Zm-41.48,1.42c-6.19,12.67-23.91,48.39-28.97,48.39-6.19,0,15.05-60.35,23.07-60.35,3.66,0,6.61,1.43,8.86,2.87-.85,2.85-1.97,5.89-2.96,9.1h0Z"/>
  <path class="cls-1" d="m570.37,183.27c-2.11,4.11-31.92,54.45-43.74,66.77-.42.35-.7.71-1.12,1.07-12.8,36.6-28.41,70.71-42.47,70.71-11.81,0-14.34-11.61-13.92-18.39.7-9.29,15.32-22.15,33.19-38.75,6.19-16.6,12.37-35.71,17.71-53.55-7.17,13.03-15.89,26.96-19.83,26.96-7.59,0-21.09-8.93-20.25-22.32.98-13.56,20.39-68.73,31.5-68.73,9.98,0,17.44,8.92,21.66,15.71,1.26-5.36,1.97-9.11,2.1-11.07.57-8.4,15.75,3.21,15.33,10.53-.28,3.39-8.16,36.78-19.55,72.31,12.52-17.32,33.34-51.96,36.57-57.67,3.09-5.71,3.65,4.82,2.81,6.43h0Zm-73.97,96.05c-11.39,10.71-19.54,18.92-19.97,24.28-.28,3.57.7,3.75,1.27,3.75,4.92,0,11.67-11.43,18.7-28.03Zm34.03-105.52c.42-1.97.98-3.75,1.41-5.54-2.25-1.79-5.48-3.39-9.42-3.39-7.87,0-28.12,62.31-21.93,62.31,5.34,0,25.03-42.49,29.95-53.38h-.01Z"/>
  <path class="cls-1" d="m611.03,183.09c-5.48,11.07-26.86,52.49-39.8,54.46h-.84c-2.81,0-17.44-1.97-16.59-14.65.84-12.67,20.39-63.03,20.95-70.17.56-8.58,15.75,3.21,15.32,10.35-.42,6.07-12.23,43.21-16.73,59.63-.7,3.03-.56,4.82.7,4.82,6.04,0,25.59-33.91,34.74-50.88,3.09-5.72,3.09,4.82,2.25,6.42v.02Zm-33.47-55.7c.7-9.46,10.54-21.61,18-21.61,5.63,0,9.42,4.46,9,11.96-.57,7.68-6.75,21.26-14.76,21.26-6.05,0-12.66-5.36-12.24-11.61Z"/>
  <path class="cls-1" d="m691.19,183.45c-5.48,10.89-27.42,53.02-40.5,55.89-3.09,1.43-16.03-4.82-15.19-16.79.56-9.1,10.54-35.16,16.59-54.45-10.41,14.46-36.56,51.95-40.36,62.48-.14,3.04.7,4.82-.57,6.25-2.25,2.51-16.59-3.93-15.75-16.6.85-12.67,19.55-54.81,20.53-69.09.57-8.57,15.89,3.21,15.33,10.35-.28,4.28-6.33,23.57-11.68,40.88,7.88-13.39,29.54-49.1,37.69-54.81.28-.36.7-.53,1.12-.72.29-.17.42-.17.71-.17.42,0,.84,0,1.12.17,4.64,1.08,11.81,8.22,11.53,13.39-.42,6.08-13.64,47.32-18.28,64.63-.56,2.51-.29,3.93.85,3.93,6.04,0,24.75-34.81,34.03-51.78,3.09-5.71,3.65,4.82,2.81,6.43h.02Z"/>
  <path class="cls-1" d="m769.12,183.09c-5.48,11.07-27.14,52.49-40.08,54.46h-.85c-2.81,0-17.44-1.97-16.59-14.65.14-1.61.42-3.57.98-6.07-6.61,10.71-13.64,20.53-17.02,20.53-7.59,0-21.09-8.93-20.25-22.31.98-13.57,21.52-66.95,32.48-66.95,9.98,0,17.44,8.93,21.66,15.71,1.82-5.36,2.95-9.46,3.09-11.07.57-8.58,15.75,3.21,15.19,10.35-.27,6.07-12.09,43.21-16.59,59.81-.7,2.85-.56,4.64.71,4.64,6.04,0,25.31-33.91,34.45-50.88,3.09-5.72,3.65,4.82,2.81,6.42h.01Zm-44.3-4.99c.98-3.21,2.11-6.25,2.95-9.1-2.25-1.43-5.2-2.87-8.86-2.87-8.02,0-29.25,60.35-23.06,60.35,5.06,0,22.78-35.71,28.97-48.39h0Z"/>
  <path class="cls-1" d="m456.68,235.23c0,21.64-43.1,117.93-80.55,117.93-9.47,0-16.25-11.62-16.53-24.03-6.92,12.58-14.98,24.03-20.91,24.03-12.86,0-23.46-12.09-23.46-24.83,0-38.02,39.75-63.6,28.83-95.33-5.12-14.86-20.91-22.84-32.19-24.89-26.14-4.74-53.52,18.05-52.19,31.45.46,4.66,4.27,6.77,6.14,16.49,1.2,6.24,1.49,14.95-.79,15.62-3.03.9-9.64-12.72-12.21-18.62-4.14-9.5-6.2-14.25-5.86-18.85,1.24-16.38,31.17-30.46,56.87-31.45,1.83-.07,42.78-1.1,56.95,24.81,2.63,4.81,4.46,9.66,4.46,15.14,0,13.69-32.22,80.05-32.22,94.7,0,0-.14,4.13,3.82,4.13,13.42,0,37.59-59.37,42.82-72.89,1.13-5.25,1.84-10.66,1.84-16.08,0-7.64,18.37-.48,18.37,6.53,0,13.69-23.46,67.64-23.46,82.28,0,0-.14,3.98,3.82,3.98,22.19,0,63.17-117.14,63.17-125.26,0-7.48,13.28,6.05,13.28,15.12v.02Z"/>
  <path class="cls-1" d="m497.24,302.08c-6.22,9.71-33.92,50.45-53.41,50.45-9.47,0-22.19-13.21-21.62-21.01,2.26-28.65,24.02-58.57,36.6-58.57,10.74,0,19.93,14.49,19.36,23.56-.71,8.91-14.27,28.17-26.99,28.17-3.67,0-6.64-.64-9.04-1.59-3.81,11.3-4.8,20.69.56,20.69,17.52,0,41.12-32.63,51.58-46.31,2.68-3.66,3.67,3.5,2.97,4.62h0Zm-50.02,7.95c14.7-3.82,23.03-25.31,17.38-25.31-3.96,0-11.45,12.09-17.38,25.31Z"/>
  <path class="cls-1" d="m571.02,303.83c-7.21,10.82-39,56.18-60.62,56.18-7.49,0-11.73-6.53-13-10.66-4.24-.32-16.53-2.87-15.68-13.05.85-11.3,35.19-93.26,36.6-111.09.56-7.64,15.83,2.71,15.4,9.23-.28,3.66-11.16,36.45-20.49,64.94,7.35-12.58,16.68-26.42,22.04-26.42,13.43,0,17.66,9.55,16.82,21.33-.71,9.23-7.63,28.33-16.96,43.61,13.28-12.58,27.56-30.4,33.35-39.63,2.97-5.09,3.53,4.14,2.54,5.57h0Zm-33.91-21.02c-8.9,0-26,31.35-33.49,45.84-2.4,7.8-3.96,13.05-4.1,14.16-.14,1.11,0,2.07,0,2.7,18.09-4.3,43.1-62.71,37.59-62.71h0Z"/>
</svg>