<?xml version="1.0" encoding="UTF-8"?>
<svg id="Capa_1" data-name="Capa 1" xmlns="http://www.w3.org/2000/svg" viewBox="0 0 282.24 332.31">
  <defs>
    <style>
      .cls-1, .cls-2 {
        fill: #fff;
      }

      .cls-3 {
        stroke-width: 7px;
      }

      .cls-3, .cls-4, .cls-2, .cls-5 {
        stroke: #fff;
        stroke-miterlimit: 10;
      }

      .cls-3, .cls-4, .cls-5 {
        fill: none;
      }

      .cls-4 {
        stroke-width: 5px;
      }

      .cls-5 {
        stroke-width: 4px;
      }
    </style>
  </defs>
  <g>
    <g>
      <path class="cls-5" d="m45.08,266.74s5,6.35,6.62,7.33,1.91,7.8,1.91,7.8c0,0,.96,3.9,2.58,4.88s5.94,15.77,2.2,17.37,3.61,28.74,31.28,9.55c17.05-11.82,23.72-17.96,32.64-22.16,11.01-5.18,13.07-1.38,22.33-6.49,3.45-1.9,18.25-10.06,20.39-23.6,2.02-12.82-9.52-16.31-7.49-30.54,1.48-10.35,8.22-12.4,7.4-23.17-.31-4.06-3.02-15.1-3.02-15.1,0,0,7.47-.45,10.01,12.7s-5.74,13.12,11.15,11.73,14.96-6.43,14.96-6.43c0,0,35.73-6.01,44.36-12.95s16.27-9.5,16.27-9.5c0,0,23.9-48.58,5.58-89.55S219.66,15.17,158.65,13.61c0,0-83.27,5.97-104.05,44.82-20.78,38.86-16.3,54.29-16.3,54.29,0,0-21.7,26.68-1.33,45.11,0,0,8.36-1.02.36,11.28s-14.22,23.47-4.02,28.54,15.18,16.94,12.41,19.69-10.28,14.24-10.28,14.24c0,0,4.39-1.77,3.85,10.08,0,0,.71,2.39,2.48,10.06.85,3.69,1.95,8.59,3.34,15.04h0l-.03-.02h0Z"/>
      <path class="cls-5" d="m172.99,214.49c3.11-10.6-8.8-23.82-16.57-27.43-7.77-3.6-68.73,20.31-74.94,31.48s-27.85-15.21-27.85-15.21"/>
      <path class="cls-5" d="m95.34,89.76s-52.52,24.6-19.4,58.5c33.12,33.9,37.97,36.84,94.01,23.77,0,0,14.76,1.2,13.27-30.13,0,0,2.3-7.45,15-17.46s1.41-25.15,1.41-25.15"/>
      <path class="cls-5" d="m103.93,203.39s-21.27,3.15-10.62,15.69c10.66,12.54,21.79,27.03,12.8,40.95"/>
      <path class="cls-5" d="m47.19,266.91s40.75-5.18,60.78-21.81"/>
      <path class="cls-5" d="m42.08,253.7s1.79-5.95,5.01-1.23c0,0,1.96-3.24,4.55-1.12,0,0,5.21-4.03,8.12-.61,0,0,6.03-6.3,8.94-2.88,0,0,4.73-5.98,9.75-2.39,0,0,3.92-6.47,10.4-2.55,0,0,2.78-5.51,4.72-3.23s.18-4.87,6.34-2.24c6.16,2.63,5.24-2.32,5.24-2.32"/>
      <path class="cls-5" d="m53.64,276.35s0,2.76,2.92.66c0,0,6.82-.3,9.92-4.5,0,0,3.57.5,6.83-3.05,0,0,5.68.67,7.48-3.21,0,0,5.66,3.43,8.29-2.72,0,0,4.87.18,7.81-4.67,0,0,5.35,2.13,9.27-4.34s1.48-5.19,1.48-5.19"/>
      <path class="cls-5" d="m155.11,190.14c1.1-1.02,8.85,16.43-2.07,28.06-10.92,11.64,3.58,34.25,3.58,34.25,0,0,4.94,20.14-14.86,20.87,0,0-20.65,8.51-23.91,12.07s6.06-11.82,30.78-26.16c0,0-18.54-27.83-1.26-47.23,17.28-19.4-2.38-12.51,7.72-21.87h.02Z"/>
      <path class="cls-4" d="m166.95,190.68s12.51-2.38,9.81,20.33c0,0,19.95,2.68,16.58-5.45-3.37-8.13,27.55,8.39,60.64-25.21,0,0,19.36-50.22,1.64-80.32-7.88-4.04-15.76-8.07-23.64-12.11,4.65,3.29,17.42,13.24,22.27,30.92,5.53,20.15-1.4,42.42-17.62,58.19,0,0-14.04,18.6-49.38,12.12-35.35-6.48-30.31-8.41-20.29,1.54h0Z"/>
      <path class="cls-5" d="m123.55,171.02s49.97,1.51,47.62-16.51c-2.36-18.02,18.01-36.11,22.39-37.87s-8.68-18.54.44-26.29c9.12-7.75,36.68-2.11,36.68-2.11,0,0-50.52-26.18-48.1,14.56l2.38,12.51s-26.2,16.76-22.53,31.71c3.67,14.94-38.89,24.01-38.89,24.01h.01,0Z"/>
      <path class="cls-5" d="m122.86,280.02s20-13,24-15,6,6-11,9,20-5,18-10c0,0,2-6-1-13s-15-21-1-37l5-13-2,12s-8-2-9,5-8,10,3,35l1-6s7,16-4,17h7"/>
      <path class="cls-5" d="m136.86,169.02s31-4,31-12,0-22,9-28,8-12,14-14l1-1s-13-25,4-28,19-1,19-1l-3-3s-23-1-24,6-3,20-1,25l2,1s-20,18-22,24-2,15-2,15c0,0-1,11-21,13l22-8,1-2"/>
      <path class="cls-3" d="m168.36,188.52s18,3,11,14,11,6,11,6l-2-14h21l-25,10-1-13-2-1-15-2s63,10,66,1-25,10-25,10l-5,1,25-4,12-6s11-9,14-22,11-53,1-62-6-8-6-8"/>
      <path class="cls-3" d="m233.36,185.52s13-11,18-24-15,27-15,27"/>
    </g>
    <path class="cls-2" d="m198.06,41.87c-16.28-5.32-51.52-14.77-84.97-6.02-10.58,2.77-17.83,6.53-19.4,7.36-20.53,10.83-31.27,27.38-36.8,36.13-4,6.33-9.25,15.98-13.2,28.82-2.96,1.52-5.92,3.04-8.88,4.56.43-5.97,4.49-51.59,43.24-77.46,34.81-23.24,83.23-20.94,120.01,6.62h0Z"/>
  </g>
  <path class="cls-1" d="m224.62,186.04c-2.55,3.5-5.14,6.88-7.69,10,1.3-2.82,2.56-5.74,3.76-8.69-.84.63-1.7,1.21-2.56,1.71-3.46,2.2-7.19,3.39-11.19,3.57-3.96.89-7.91.72-11.87-.5-5.22,8.4-10.61,14.26-15.4,14.64,1.33-5.75,2.76-11.5,4.12-17.13-2.03-.57-4.05-1.19-6.06-1.85-4.44-1.46-8.32-3.69-11.53-6.49-1.31,5.38-2.65,10.69-3.99,15.85.15,1.29.25,2.58.3,3.87.3,7.65-2.85,16.28-7.29,22.25-.91,3.35-1.78,6.54-2.58,9.54,4.19,5.28,6.37,12.24,7.07,19.25.48,2.48.77,5.02.86,7.52.21,5.27-1.22,11.01-3.59,16.02,3.31,1.12,6.37.69,7.22-.37,1.69-2.23.28-1.82.42-5.67.29-3.04,6.9-29.98,14.2-59.56,4.47,4.84,15.04,14.77,29.28,15.18,21.84.64,45.08-21.29,50.18-54.86-6.93,5.56-16.34,11.35-28.3,14.52-1.82.48-3.61.88-5.35,1.2h0Z"/>
  <path class="cls-4" d="m45.08,290.81s-2.57,91.29,133.71-30.86c0,0-5.1-23.8,6.12-31.31,4.13-2.77,8.89-2.25,10.59-2.11,19.89,1.55,55.69-21.95,71.68-47.25,22.56-35.69,11.12-83.5-6.11-112.18C229.84,15.07,154.49-15.8,91.68,14.38,46.55,36.07,17.94,84.47,18.08,137.81c4.29,9.43,8.57,18.86,12.86,28.29,0,0-36,69.43-27,70.71s25.71-2.57,27,.64-1.93,19.29,2.57,21.86,6.43,4.5,6.43,4.5c0,0-8.36,10.29-3.21,11.57,5.14,1.29,8.36,15.43,8.36,15.43h-.01Z"/>
  <path class="cls-4" d="m38.9,155.81s21.35,0,25.49,4.5-17.91,11.57-23.42,9-2.07-13.5-2.07-13.5Z"/>
  <path class="cls-4" d="m30.29,145.52s.64-16.07,35.36-8.36"/>
  <path class="cls-4" d="m103.26,314.27c-5.79,1.93-13.5,10.61-28.93,14.46-15.43,3.86,198.64-3.86,198.64-3.86l-27.96-18.32c-23.14-9.64-3.86-94.5-3.86-94.5"/>
</svg>