<?xml version="1.0" encoding="UTF-8"?>
<svg id="Capa_1" data-name="Capa 1" xmlns="http://www.w3.org/2000/svg" viewBox="0 0 313.76 310.9">
  <defs>
    <style>
      .cls-1, .cls-2 {
        fill: #fff;
      }

      .cls-3 {
        stroke-width: 7px;
      }

      .cls-3, .cls-4, .cls-5, .cls-2, .cls-6 {
        stroke: #fff;
        stroke-miterlimit: 10;
      }

      .cls-3, .cls-4, .cls-5, .cls-6 {
        fill: none;
      }

      .cls-4 {
        stroke-width: 5px;
      }

      .cls-5 {
        stroke-width: 3px;
      }

      .cls-6 {
        stroke-width: 4px;
      }
    </style>
  </defs>
  <g>
    <g>
      <path class="cls-6" d="m41.79,255.13s5,6.35,6.62,7.33,1.91,7.8,1.91,7.8c0,0,.96,3.9,2.58,4.88s5.94,15.77,2.2,17.37,3.61,28.74,31.28,9.55c17.05-11.82,23.72-17.96,32.64-22.16,11.01-5.18,13.07-1.38,22.33-6.49,3.45-1.9,18.25-10.06,20.39-23.6,2.02-12.82-9.52-16.31-7.49-30.54,1.48-10.35,8.22-12.4,7.4-23.17-.31-4.06-3.02-15.1-3.02-15.1,0,0,7.47-.45,10.01,12.7s-5.74,13.12,11.15,11.73,14.96-6.43,14.96-6.43c0,0,35.73-6.01,44.36-12.95s16.27-9.5,16.27-9.5c0,0,23.9-48.58,5.58-89.55S216.37,3.56,155.36,2c0,0-83.27,5.97-104.05,44.82-20.78,38.86-16.3,54.29-16.3,54.29,0,0-21.7,26.68-1.33,45.11,0,0,8.36-1.02.36,11.28s-14.22,23.47-4.02,28.54,15.18,16.94,12.41,19.69-10.28,14.24-10.28,14.24c0,0,4.39-1.77,3.85,10.08,0,0,.71,2.39,2.48,10.06.85,3.69,1.95,8.59,3.34,15.04h0l-.03-.02Z"/>
      <path class="cls-5" d="m36.97,131.62l20.05,17.13s9.98,18.22-1.24,23.04-9.54-7.99-9.54-7.99c0,0,15.39,6.56,3.6-7.77-10-12.16-11.75-12.95-12.52-19.95-.14-1.25-.24-2.7-.36-4.44v-.02Z"/>
      <path class="cls-6" d="m169.7,202.88c3.11-10.6-8.8-23.82-16.57-27.43-7.77-3.6-68.73,20.31-74.94,31.48-6.21,11.17-27.85-15.21-27.85-15.21"/>
      <path class="cls-6" d="m92.05,78.15s-52.52,24.6-19.4,58.5c33.12,33.9,37.97,36.84,94.01,23.77,0,0,14.76,1.2,13.27-30.13,0,0,2.3-7.45,15-17.46,12.7-10.01,1.41-25.15,1.41-25.15"/>
      <path class="cls-6" d="m100.64,191.78s-21.27,3.15-10.62,15.69c10.66,12.54,21.79,27.03,12.8,40.95"/>
      <path class="cls-6" d="m43.9,255.3s40.75-5.18,60.78-21.81"/>
      <path class="cls-6" d="m38.79,242.09s1.79-5.95,5.01-1.23c0,0,1.96-3.24,4.55-1.12,0,0,5.21-4.03,8.12-.61,0,0,6.03-6.3,8.94-2.88,0,0,4.73-5.98,9.75-2.39,0,0,3.92-6.47,10.4-2.55,0,0,2.78-5.51,4.72-3.23,1.94,2.28.18-4.87,6.34-2.24,6.16,2.63,5.24-2.32,5.24-2.32"/>
      <path class="cls-6" d="m50.35,264.74s0,2.76,2.92.66c0,0,6.82-.3,9.92-4.5,0,0,3.57.5,6.83-3.05,0,0,5.68.67,7.48-3.21,0,0,5.66,3.43,8.29-2.72,0,0,4.87.18,7.81-4.67,0,0,5.35,2.13,9.27-4.34s1.48-5.19,1.48-5.19"/>
      <path class="cls-6" d="m151.82,178.53c1.1-1.02,8.85,16.43-2.07,28.06-10.92,11.64,3.58,34.25,3.58,34.25,0,0,4.94,20.14-14.86,20.87,0,0-20.65,8.51-23.91,12.07s6.06-11.82,30.78-26.16c0,0-18.54-27.83-1.26-47.23,17.28-19.4-2.38-12.51,7.72-21.87h.02Z"/>
      <path class="cls-4" d="m163.66,179.07s12.51-2.38,9.81,20.33c0,0,19.95,2.68,16.58-5.45s27.55,8.39,60.64-25.21c0,0,19.36-50.22,1.64-80.32-7.88-4.04-15.76-8.07-23.64-12.11,4.65,3.29,17.42,13.24,22.27,30.92,5.53,20.15-1.4,42.42-17.62,58.19,0,0-14.04,18.6-49.38,12.12-35.35-6.48-30.31-8.41-20.29,1.54h0Z"/>
      <path class="cls-6" d="m120.26,159.41s49.97,1.51,47.62-16.51c-2.36-18.02,18.01-36.11,22.39-37.87s-8.68-18.54.44-26.29,36.68-2.11,36.68-2.11c0,0-50.52-26.18-48.1,14.56l2.38,12.51s-26.2,16.76-22.53,31.71c3.67,14.94-38.89,24.01-38.89,24.01h.01Z"/>
      <path class="cls-5" d="m37.33,136.07s23.74,22.84,19.74,29.84-9.07-.36-9.07-.36l3.07,6.36s11.17,0,8.72-11.27c-.75-3.43-2.75-7.9-6.72-13.73l-15.36-13.07,19.36,23.07s-11.57-15-16.79-14.5,16.36,10.93,14.57,19.71-6.86,7.29-6.86,7.29"/>
      <polyline class="cls-5" points="49.07 144.91 59.07 161.91 53.07 167.91"/>
      <path class="cls-6" d="m119.57,268.41s20-13,24-15,6,6-11,9,20-5,18-10c0,0,2-6-1-13s-15-21-1-37l5-13-2,12s-8-2-9,5-8,10,3,35l1-6s7,16-4,17h7"/>
      <path class="cls-6" d="m133.57,157.41s31-4,31-12,0-22,9-28,8-12,14-14l1-1s-13-25,4-28,19-1,19-1l-3-3s-23-1-24,6-3,20-1,25l2,1s-20,18-22,24-2,15-2,15c0,0-1,11-21,13l22-8,1-2"/>
      <path class="cls-3" d="m165.07,176.91s18,3,11,14,11,6,11,6l-2-14h21l-25,10-1-13-2-1-15-2s63,10,66,1-25,10-25,10l-5,1,25-4,12-6s11-9,14-22,11-53,1-62-6-8-6-8"/>
      <path class="cls-3" d="m230.07,173.91s13-11,18-24-15,27-15,27"/>
    </g>
    <path class="cls-2" d="m194.77,30.26c-16.28-5.32-51.52-14.77-84.97-6.02-10.58,2.77-17.83,6.53-19.4,7.36-20.53,10.83-31.27,27.38-36.8,36.13-4,6.33-9.25,15.98-13.2,28.82-2.96,1.52-5.92,3.04-8.88,4.56.43-5.97,4.49-51.59,43.24-77.46C109.57.41,157.99,2.71,194.77,30.27h0Z"/>
  </g>
  <path class="cls-1" d="m221.33,174.43c-2.55,3.5-5.14,6.88-7.69,10,1.3-2.82,2.56-5.74,3.76-8.69-.84.63-1.7,1.21-2.56,1.71-3.46,2.2-7.19,3.39-11.19,3.57-3.96.89-7.91.72-11.87-.5-5.22,8.4-10.61,14.26-15.4,14.64,1.33-5.75,2.76-11.5,4.12-17.13-2.03-.57-4.05-1.19-6.06-1.85-4.44-1.46-8.32-3.69-11.53-6.49-1.31,5.38-2.65,10.69-3.99,15.85.15,1.29.25,2.58.3,3.87.3,7.65-2.85,16.28-7.29,22.25-.91,3.35-1.78,6.54-2.58,9.54,4.19,5.28,6.37,12.24,7.07,19.25.48,2.48.77,5.02.86,7.52.21,5.27-1.22,11.01-3.59,16.02,3.31,1.12,6.37.69,7.22-.37,1.69-2.23.28-1.82.42-5.67.29-3.04,6.9-29.98,14.2-59.56,4.47,4.84,15.04,14.77,29.28,15.18,21.84.64,45.08-21.29,50.18-54.86-6.93,5.56-16.34,11.35-28.3,14.52-1.82.48-3.61.88-5.35,1.2h-.01Z"/>
  <g>
    <path class="cls-1" d="m56.55,96.01c-3.5,7.12-6.58,13.38-9.65,19.64.46-10.49,7.62-21.65-6.91-30.66.7-.29,1.41-.57,2.11-.86,1.85.66,3.83,1.1,5.52,2.02,25.66,13.98,52.95,18.72,81.97,15.42,4.42-.5,9.29,1.5,13.95,2.34-.04.64-.08,1.27-.11,1.91-1.17.18-2.32.48-3.51.54-17.01.78-34.06,2.72-51.03,1.79-8.84-.48-17.57-6.02-26.32-9.33-1.94-.74-3.76-1.74-6.01-2.8Z"/>
    <path class="cls-1" d="m187.02,116.52c-3.81,1.94-7.56,3.96-11.44,5.78-2.44,1.15-4.95,2.59-7.61,2.89-11.75,1.3-11.77,1.16-13.36,12.05-.82-1.28-1.58-1.99-1.75-2.79-1.27-6.19-4.71-10.06-12.23-9.98-5.95.06-10.3-2.38-13.97-6.84-2.66-3.23-6.47-5.7-9.91-8.63,6.8-2.29,11.8.82,17.01,4.01,12.41,7.58,32.97,7.6,44.35.31,0,0-.02,0-.02,0,2.74-1.58,5.68-2.95,8.18-4.79,4.28-3.15,8.43-3.01,13.02.12-4.26,2.73-8.4,5.38-12.54,8.04,0,0,.26-.16.26-.16Z"/>
    <path class="cls-1" d="m281.49,81.86c-.54-.82-1.94-1.29-3.03-1.74-7.52-3.12-15.06-6.21-22.59-9.31l2.15,5.1c.22.67.41,1.36.59,2.04,6.67,3.88,13.43,7.64,20.15,11.46l-.1-.05c4.2,5.16,3.32,7.37-3.5,9.98-2.41.92-4.46,2.54-6.68,3.85l-.2-.24c2.75,4.53,18.49,4.8,21.09-.21,2.85-5.49,7.68-6.09,13.23-6.62,3.76-.36,7.44-1.21,11.16-1.84-11.96-2.51-24.69-.77-32.27-12.41Z"/>
    <path class="cls-1" d="m79.11,87.02c-.66.78-1.26,2.22-1.99,2.25-12.68.57-24.78-2.4-36.3-7.23-10.03-4.2-20.01-7.34-32.6-4.14,1.91-1.71,2.26-2.25,2.78-2.46q10.95-4.38,2.53-12.19c-5.66-5.25-5.28-7,3.21-13.93.68.49,1.99.97,2.04,1.52,1.81,18.37,15.43,25.29,33.23,28.5,7.29,1.32,14.48,3.25,21.66,5.13,1.99.52,3.76,1.85,5.63,2.81l-.2-.27Z"/>
    <path class="cls-1" d="m186.77,116.68c15.4,3.02,29.83,1.66,42.13-7.18,8.28-5.95,8.03-6.22,14.64-4.61.41,7.18.82,14.39,1.23,21.6-.45.07-.9.15-1.35.22-1.46-5.8-2.91-11.61-4.74-18.9-11.06,10.49-20.67,21.53-39.07,16.22-.22.66-.45,1.32-.67,1.98,4.42,4.9,8.85,9.79,13.27,14.69-.37.38-.74.75-1.12,1.13-8.88-7.34-17.76-14.69-27.02-22.35.69-.69,1.82-1.81,2.95-2.94,0,0-.25.15-.25.15Z"/>
    <path class="cls-1" d="m79.3,87.29c-5.11-7.24-12.37-11.85-21.2-14.59-3.85-1.2-7.66-2.47-11.49-3.72-4.54-1.49-6-3.99-2.98-8.48,7.61,4.3,15.04,4.78,21.9-1.57-1.69,2.34-3.38,4.68-5.34,7.41,11.67,7.49,23.33,14.99,35,22.48l-.2-.28c4.87,3.77,9.75,7.54,16.28,12.6-4.48-.5-7.66-.3-10.35-1.29-3.9-1.44-7.34-5.71-11.38-.73-1.29-1.2-2.75-2.29-3.85-3.61-2.29-2.77-4.4-5.66-6.58-8.49,0,0,.2.27.2.27Z"/>
    <path class="cls-1" d="m95.19,88.82c.41-.96.75-2.73,1.25-2.75,8.55-.32,17.11-.45,25.68-.56.92-.01,2,.16,2.79.58,8.83,4.71,17.53,9.63,26.44,14.2,8.81,4.52,17.82,8.69,26.75,13.02.01,0,.03,0,.04.01-6.93,3.16-12.68.23-19.03-2.8-13.03-6.2-26.44-11.72-39.85-17.19-3.2-1.31-7.03-1.24-10.54-1.92-4.59-.89-9.15-1.91-13.72-2.87,0,0,.21.28.21.28Z"/>
    <path class="cls-1" d="m225.19,111.42c-2.59.19-5.32.99-7.75.46-5.36-1.17-10.49-3.46-15.87-4.47-7.12-1.34-14.38-2.03-21.6-2.76-8.83-.9-18.16,1.13-26.56-5.02,10.12-3.64,3.98-12.86,7.99-19.97.67,5.12.94,9.22,1.85,13.22.36,1.61,1.79,3.62,3.32,4.3,1,.45,3.27-.93,4.59-1.91,2.06-1.52,3.8-3.39,7.12-6.42l-1.19,6.59c16.5,4.65,32.41,9.13,48.32,13.61-.07.79-.14,1.58-.22,2.37Z"/>
    <path class="cls-1" d="m63.24,30.79c1.03-1.03,2.11-2,3.23-2.95-4.99-1.04-8.03-4.01-7.01-9.56.59-3.24-.03-6.7-.14-11.19-1.19,1.32-1.42,1.47-1.47,1.66-.21.83-.49,1.66-.52,2.51-.35,8.21-2.61,14.89-13.69,15.24-.96.03-1.78,1.88-2.38,2.56,7.11,1.28,13.7,2.49,20.18,3.65.59-.66,1.19-1.3,1.81-1.91Z"/>
    <path class="cls-1" d="m271.59,59.72c3.39-4.62,6.45-8.8,9.51-12.97-2.92.83-5.09,2.16-6.64,3.94-5.15,5.95-11.38,6.81-19.58,4.68-2.79-.73-5.62-1.34-8.48-1.9.06.15.13.29.19.44,1.67,2.05,3.22,4.21,4.65,6.5,3.74,1.15,7.46,2.34,11.16,3.58,5.3,1.78,11.08,4.22,8.44,11.07,2.68,1.05,4.84,1.89,6.86,2.68,12.42-9.62-2.23-12.73-6.11-18.02Z"/>
    <path class="cls-1" d="m245,50.38c.21.07.43.14.64.2,4.63-3.53,8.53-6.51,11.93-9.1-5.59.25-12.23,2.36-17.08.46-.21-.08-.42-.16-.63-.24,2.14,3.05,3.71,5.71,5.15,8.67Z"/>
    <path class="cls-1" d="m201.21,83.1c1.62.12,2.31,0,2.51.22,13.09,14.51,32.22,13.03,49.39,16.77,2.31.5,4.47,1.65,6.69,2.49l-.83,2.44c-3.01-.41-6.07-.6-9.01-1.28-11.19-2.59-22.12-2.75-33.26-.27-4.17.93-9.11-.59-13.7-.99l-.13-1.72c3.29-1.3,6.57-2.61,10.86-4.31-4.3-4.58-8.14-8.67-12.52-13.34Z"/>
    <path class="cls-1" d="m0,47.84c6.36-5.73,18.86-6.89,13.2-20.09,2.58,1.54,4.37,2.61,5.64,3.37,3.97-1.35,7.59-2.57,11.22-3.8.42.44.84.88,1.27,1.33-1.35,1.72-2.38,3.78-4.11,5.1-7.96,6.1-7.98,8.32-.72,15.49,2.84,2.8,4.76,6.35,6.25,10.32-10.38-5.61-16.3-20.29-32.75-11.71Z"/>
    <path class="cls-1" d="m268.28,102.94q-3.07,14.58,13.24,18.97c-11.52-.92-23.04-1.85-35.08-2.81-.21-1.66-.44-3.5-.69-5.47,1.88-.25,3.5-.47,5.12-.67,9.39-1.12,12.25-5.71,9.2-13.86-.64-1.7.57-3.91.93-5.89.8.09,1.59.18,2.39.27,1.7,3.23,3.39,6.45,5.1,9.69,0,0-.19-.23-.19-.23Z"/>
    <path class="cls-1" d="m268.55,83.8c-1.64-.73-4.75-1.2-5.64-.4-.96.87-1.94,1.61-2.93,2.25.25,2.71.26,5.45.09,8.19,3.65-1.23,7.3-2.46,11.03-3.5,2.39-.66,5.03-.68,7.56-.99,0,0,.1.05.08.04-3.39-1.91-6.65-4.03-10.19-5.59Z"/>
    <path class="cls-1" d="m37.5,35.7c-1.86.19-3.71.37-6.78.68,1.5-5.14,2.84-9.73,4.23-14.52-4.34-1.41-9.13-2.98-11.86-3.86,9.34-1.05,20.21-2.28,33.02-3.72-2.14,2.26-3.11,4.38-4.61,4.69-10.01,2.08-13.17,8.71-14.25,16.9,0,0,.25-.17.25-.17Z"/>
    <path class="cls-1" d="m37.25,35.86c4.82-.69,9.61-1.56,14.47-2.03,4.02-.38,8.11-.29,12.17-.41.15.59.29,1.17.44,1.76-1.83.99-3.67,1.98-6.18,3.35,3.52,1.86,6.34,3.36,8.27,4.38-5.94-.85-12.85-2.91-19.46-2.49-6.82.43-13.35,3.27-21.46,5.45.22-1.21-.13-3.53.9-4.22,3.43-2.3,7.36-4.01,11.1-5.95,0,0-.24.16-.24.16Z"/>
    <path class="cls-1" d="m41.09,51.05c2.65-1.17,4.44-1.97,6.23-2.76-9.99,6.89-7.94,16.32-6.38,25.7-4.7-.2-6.1-1.33-6.73-6.19-.83-6.39-1.74-12.79-1.98-19.18-.07-1.78,2.1-3.56,4.06-6.61,2.18,4.11,3.37,6.36,4.79,9.04Z"/>
    <path class="cls-1" d="m81.53,21.13c-9.97,2.29-19.32-.63-19.94-7.73,7.04,2.77,13.43,5.29,19.84,7.79.02,0,.1-.07.1-.07Z"/>
  </g>
</svg>