<?xml version="1.0" encoding="UTF-8"?>
<svg id="Capa_1" data-name="Capa 1" xmlns="http://www.w3.org/2000/svg" viewBox="0 0 247.19 310.91">
  <defs>
    <style>
      .cls-1 {
        stroke-width: 4px;
      }

      .cls-1, .cls-2, .cls-3, .cls-4 {
        fill: none;
        stroke: #000;
        stroke-miterlimit: 10;
      }

      .cls-5 {
        fill: #fff;
      }

      .cls-2 {
        stroke-width: 3px;
      }

      .cls-3 {
        stroke-width: 5px;
      }

      .cls-4 {
        stroke-width: 7px;
      }
    </style>
  </defs>
  <path class="cls-5" d="m17.53,255.65s5,6.35,6.62,7.33,1.91,7.8,1.91,7.8c0,0,.96,3.9,2.58,4.88s5.94,15.77,2.2,17.37,3.61,28.74,31.28,9.55c17.05-11.82,23.72-17.96,32.64-22.16,11.01-5.18,13.07-1.38,22.33-6.49,3.45-1.9,18.25-10.06,20.39-23.6,2.02-12.82-9.52-16.31-7.49-30.54,1.48-10.35,8.22-12.4,7.4-23.17-.31-4.06-3.02-15.1-3.02-15.1,0,0,7.47-.45,10.01,12.7s-5.74,13.12,11.15,11.73,14.96-6.43,14.96-6.43c0,0,35.73-6.01,44.36-12.95s16.27-9.5,16.27-9.5c0,0,23.9-48.58,5.58-89.55S192.11,4.08,131.1,2.52c0,0-83.27,5.97-104.05,44.82C6.27,86.2,10.75,101.63,10.75,101.63c0,0-21.7,26.68-1.33,45.11,0,0,8.36-1.02.36,11.28s-14.22,23.47-4.02,28.54,15.18,16.94,12.41,19.69-10.28,14.24-10.28,14.24c0,0,4.39-1.77,3.85,10.08,0,0,.71,2.39,2.48,10.06.85,3.69,1.95,8.59,3.34,15.04h0s-.03-.02-.03-.02Z"/>
  <g>
    <g>
      <path class="cls-1" d="m19.11,255.14s5,6.35,6.62,7.33,1.91,7.8,1.91,7.8c0,0,.96,3.9,2.58,4.88s5.94,15.77,2.2,17.37,3.61,28.74,31.28,9.55c17.05-11.82,23.72-17.96,32.64-22.16,11.01-5.18,13.07-1.38,22.33-6.49,3.45-1.9,18.25-10.06,20.39-23.6,2.02-12.82-9.52-16.31-7.49-30.54,1.48-10.35,8.22-12.4,7.4-23.17-.31-4.06-3.02-15.1-3.02-15.1,0,0,7.47-.45,10.01,12.7s-5.74,13.12,11.15,11.73,14.96-6.43,14.96-6.43c0,0,35.73-6.01,44.36-12.95s16.27-9.5,16.27-9.5c0,0,23.9-48.58,5.58-89.55S193.67,3.56,132.66,2c0,0-83.27,5.97-104.05,44.82C7.84,85.68,12.31,101.12,12.31,101.12c0,0-21.7,26.68-1.33,45.11,0,0,8.36-1.02.36,11.28s-14.22,23.47-4.02,28.54,15.18,16.94,12.41,19.69-10.28,14.24-10.28,14.24c0,0,4.39-1.77,3.85,10.08,0,0,.71,2.39,2.48,10.06.85,3.69,1.95,8.59,3.34,15.04h0v-.02Z"/>
      <path class="cls-2" d="m14.29,131.63l20.05,17.13s9.98,18.22-1.24,23.04-9.54-7.99-9.54-7.99c0,0,15.39,6.56,3.6-7.77-10-12.16-11.75-12.95-12.52-19.95-.14-1.25-.24-2.7-.36-4.44v-.02Z"/>
      <path class="cls-1" d="m147.02,202.89c3.11-10.6-8.8-23.82-16.57-27.43-7.77-3.6-68.73,20.31-74.94,31.48s-27.85-15.21-27.85-15.21"/>
      <path class="cls-1" d="m69.37,78.16s-52.52,24.6-19.4,58.5c33.12,33.9,37.97,36.84,94.01,23.77,0,0,14.76,1.2,13.27-30.13,0,0,2.3-7.45,15-17.46s1.41-25.15,1.41-25.15"/>
      <path class="cls-1" d="m77.97,191.79s-21.27,3.15-10.62,15.69c10.66,12.54,21.79,27.03,12.8,40.95"/>
      <path class="cls-1" d="m21.22,255.31s40.75-5.18,60.78-21.81"/>
      <path class="cls-1" d="m16.11,242.1s1.79-5.95,5.01-1.23c0,0,1.96-3.24,4.55-1.12,0,0,5.21-4.03,8.12-.61,0,0,6.03-6.3,8.94-2.88,0,0,4.73-5.98,9.75-2.39,0,0,3.92-6.47,10.4-2.55,0,0,2.78-5.51,4.72-3.23s.18-4.87,6.34-2.24,5.24-2.32,5.24-2.32"/>
      <path class="cls-1" d="m27.67,264.75s-.01,2.76,2.92.66c0,0,6.82-.3,9.92-4.5,0,0,3.57.5,6.83-3.05,0,0,5.68.67,7.48-3.21,0,0,5.66,3.43,8.29-2.72,0,0,4.87.18,7.81-4.67,0,0,5.35,2.13,9.27-4.34s1.48-5.19,1.48-5.19"/>
      <path class="cls-1" d="m129.14,178.54c1.1-1.02,8.85,16.43-2.07,28.06-10.92,11.64,3.58,34.25,3.58,34.25,0,0,4.94,20.14-14.86,20.87,0,0-20.65,8.51-23.91,12.07s6.06-11.82,30.78-26.16c0,0-18.54-27.83-1.26-47.23,17.28-19.4-2.38-12.51,7.72-21.87h.02Z"/>
      <path class="cls-3" d="m140.98,179.08s12.51-2.38,9.81,20.33c0,0,19.95,2.68,16.58-5.45s27.55,8.39,60.64-25.21c0,0,19.36-50.22,1.64-80.32-7.88-4.04-15.76-8.07-23.64-12.11,4.65,3.29,17.42,13.24,22.27,30.92,5.53,20.15-1.4,42.42-17.62,58.19,0,0-14.04,18.6-49.38,12.12-35.35-6.48-30.31-8.41-20.29,1.54h0Z"/>
      <path class="cls-1" d="m97.58,159.42s49.97,1.51,47.62-16.51c-2.36-18.02,18.01-36.11,22.39-37.87s-8.68-18.54.44-26.29,36.68-2.11,36.68-2.11c0,0-50.52-26.18-48.1,14.56l2.38,12.51s-26.2,16.76-22.53,31.71c3.67,14.94-38.89,24.01-38.89,24.01h.01Z"/>
      <path class="cls-2" d="m14.65,136.08s23.74,22.84,19.74,29.84-9.07-.36-9.07-.36l3.07,6.36s11.17,0,8.72-11.27c-.75-3.43-2.75-7.9-6.72-13.73l-15.36-13.07,19.36,23.07s-11.57-15-16.79-14.5,16.36,10.93,14.57,19.71-6.86,7.29-6.86,7.29"/>
      <polyline class="cls-2" points="26.39 144.92 36.39 161.92 30.39 167.92"/>
      <path class="cls-1" d="m96.89,268.42s20-13,24-15,6,6-11,9,20-5,18-10c0,0,2-6-1-13s-15-21-1-37l5-13-2,12s-8-2-9,5-8,10,3,35l1-6s7,16-4,17h7"/>
      <path class="cls-1" d="m110.89,157.42s31-4,31-12,0-22,9-28,8-12,14-14l1-1s-13-25,4-28,19-1,19-1l-3-3s-23-1-24,6-3,20-1,25l2,1s-20,18-22,24-2,15-2,15c0,0-1,11-21,13l22-8,1-2"/>
      <path class="cls-4" d="m142.39,176.92s18,3,11,14,11,6,11,6l-2-14h21l-25,10-1-13-2-1-15-2s63,10,66,1-25,10-25,10l-5,1,25-4,12-6s11-9,14-22,11-53,1-62-6-8-6-8"/>
      <path class="cls-4" d="m207.39,173.92s13-11,18-24-15,27-15,27"/>
    </g>
    <path d="m172.09,30.27c-16.28-5.32-51.52-14.77-84.97-6.02-10.58,2.77-17.83,6.53-19.4,7.36-20.53,10.83-31.27,27.38-36.8,36.13-4,6.33-9.25,15.98-13.2,28.82-2.96,1.52-5.92,3.04-8.88,4.56.43-5.97,4.49-51.59,43.24-77.46C86.89.41,135.31,2.72,172.09,30.27Z"/>
  </g>
  <path d="m127.93,181.48c8.87,1.61,20.5,6.92,27.56,16.33,3.16-3.34,6.8-6.38,10.69-8.99-17.79-13.42-44.81-12.75-46.28-12.7-25.7.99-55.63,15.06-56.87,31.45-.35,4.59,1.72,9.34,5.86,18.85,2.57,5.9,9.17,19.52,12.21,18.62,2.28-.68,2-9.39.79-15.62-1.88-9.72-5.68-11.83-6.14-16.49-1.34-13.4,26.05-36.19,52.19-31.45h-.01Z"/>
</svg>